<svg width="180" height="180" viewBox="0 0 180 180" fill="none" xmlns="http://www.w3.org/2000/svg">
  <rect width="180" height="180" rx="39" fill="#060a16"/>
  <defs>
    <radialGradient id="fp-glow" cx="50%" cy="46%" r="42%">
      <stop offset="0%" stop-color="#f97316" stop-opacity="0.9"/>
      <stop offset="100%" stop-color="#f97316" stop-opacity="0"/>
    </radialGradient>
  </defs>
  <circle cx="90" cy="83" r="44" fill="url(#fp-glow)"/>
  <g stroke="#ffffff" stroke-opacity="0.28" stroke-width="1">
    <path d="M52 46 L128 122 M64 46 L128 110 M76 46 L128 98 M88 46 L128 86 M100 46 L128 74 M112 46 L128 62"/>
    <path d="M128 46 L52 122 M116 46 L52 110 M104 46 L52 98 M92 46 L52 86 M80 46 L52 74 M68 46 L52 62"/>
  </g>
  <g fill="#f0f4f8">
    <rect x="41" y="37" width="98" height="18" rx="6"/>
    <rect x="41" y="37" width="18" height="86" rx="6"/>
    <rect x="121" y="37" width="18" height="86" rx="6"/>
  </g>
  <rect x="41" y="114" width="18" height="9" fill="#dc2626"/>
  <rect x="121" y="114" width="18" height="9" fill="#dc2626"/>
  <path d="M100 50 L67 98 L84 98 L76 132 L118 84 L98 84 Z" fill="#f97316" stroke="#1e0c04" stroke-width="4" stroke-linejoin="round"/>
  <path d="M100 50 L67 98 L84 98 L79 116 L98 84 L112 84 Z" fill="#fbbf67" fill-opacity="0.55"/>
</svg>
